SplineFontDB: 3.0
FontName: GoudyBookletter1911OpenCaps
FullName: Goudy Bookletter 1911 Open Capitals
FamilyName: GoudyBookletter1911OpenCaps
Weight: Regular
Copyright: Created by trashman with FontForge 2.0 (http://fontforge.sf.net)
UComments: "Scaling: cut 3200-dpi samples 2000 pixels high, then scale them to 120%." 
Version: 001.000
ItalicAngle: 0
UnderlinePosition: -204
UnderlineWidth: 102
Ascent: 1838
Descent: 210
LayerCount: 3
Layer: 0 0 "Back"  1
Layer: 1 0 "Fore"  0
Layer: 2 0 "backup"  1
XUID: [1021 658 797806517 11473725]
FSType: 0
OS2Version: 0
OS2_WeightWidthSlopeOnly: 0
OS2_UseTypoMetrics: 1
CreationTime: 1249326201
ModificationTime: 1249370611
OS2TypoAscent: 0
OS2TypoAOffset: 1
OS2TypoDescent: 0
OS2TypoDOffset: 1
OS2TypoLinegap: 184
OS2WinAscent: 0
OS2WinAOffset: 1
OS2WinDescent: 0
OS2WinDOffset: 1
HheadAscent: 0
HheadAOffset: 1
HheadDescent: 0
HheadDOffset: 1
OS2Vendor: 'PfEd'
DEI: 91125
Encoding: UnicodeBmp
UnicodeInterp: none
NameList: Adobe Glyph List
DisplaySize: -72
AntiAlias: 1
FitToEm: 1
WinInfo: 40 8 6
BeginPrivate: 8
BlueValues 25 [-41 0 942 996 1607 1641]
BlueScale 9 0.0183333
BlueFuzz 1 0
BlueShift 1 7
StdHW 4 [90]
StemSnapH 4 [90]
StdVW 5 [145]
StemSnapV 5 [145]
EndPrivate
BeginChars: 65536 53

StartChar: b
Encoding: 98 98 1
Width: 565
VWidth: 0
Flags: MW
HStem: -36 84<340.286 714.919> 856 118<430.349 691.054> 1587 20G<271.5 291>
VStem: 12 21G 126 21G<12.5 39> 155 145<884.937 1424.8> 910 152<271.279 618.997>
LayerCount: 3
Fore
Refer: 27 66 N 1 0 0 1 0 0 2
Layer: 2
SplineSet
281 1607 m 0
 301 1607 306 1590 306 1557 c 2
 306 830 l 1
 306 830 418 974 598 974 c 0
 946 974 1062 674 1062 485 c 0
 1062 221 870 -36 522 -36 c 0
 412 -36 320 -10 261 -10 c 0
 218 -10 182 -34 148 -34 c 0
 129 -34 126 -23 126 -7 c 0
 126 171 155 299 155 1350 c 0
 155 1442 12 1461 12 1491 c 0
 12 1519 62 1528 154 1567 c 0
 204 1589 262 1607 281 1607 c 0
910 421 m 0
 910 679 721 856 523 856 c 0
 344 856 286 720 286 672 c 2
 286 233 l 2
 286 118 316 48 542 48 c 0
 777 48 910 228 910 421 c 0
EndSplineSet
EndChar

StartChar: f
Encoding: 102 102 5
Width: 565
VWidth: 0
Flags: MW
HStem: 0 92<34.4772 181.625 344.646 495.781> 849 95<34.0378 196 337 608.928> 1504 120<508.885 764.119>
VStem: 196 143<96.2256 849 942 1258.4> 800 20G
LayerCount: 3
Fore
Refer: 31 70 N 1 0 0 1 0 0 2
Layer: 2
SplineSet
496 53 m 4
 496 35 495 -5 459 -5 c 4
 452 -5 379 0 273 0 c 4
 165 0 77 -5 70 -5 c 4
 40 -5 34 17 34 41 c 4
 34 98 108 78 153 93 c 4
 193 106 196 183 196 506 c 6
 196 849 l 5
 62 849 l 6
 47 849 34 849 34 894 c 4
 34 936 47 942 62 942 c 6
 199 942 l 5
 199 994 l 6
 199 1086 209 1266 322 1415 c 4
 411 1533 537 1624 678 1624 c 4
 789 1624 820 1571 820 1532 c 4
 820 1490 785 1459 726 1459 c 4
 664 1459 636 1509 568 1509 c 4
 396 1509 334 1266 334 1009 c 6
 334 942 l 5
 583 942 l 6
 598 942 609 936 609 900 c 4
 609 855 598 849 583 849 c 6
 339 849 l 5
 338 623 337 561 337 511 c 4
 337 480 341 365 341 176 c 4
 341 86 383 91 452 87 c 4
 477 86 496 75 496 53 c 4
EndSplineSet
EndChar

StartChar: A
Encoding: 65 65 26
Width: 565
VWidth: 0
Flags: W
HStem: 606 213<205.285 376.076>
VStem: 184 213<627.285 798.076>
LayerCount: 3
Fore
SplineSet
184 713 m 4
 184 772 232 819 291 819 c 4
 350 819 397 772 397 713 c 4
 397 654 350 606 291 606 c 4
 232 606 184 654 184 713 c 4
EndSplineSet
EndChar

StartChar: B
Encoding: 66 66 27
Width: 565
VWidth: 0
Flags: W
HStem: 606 213<205.285 376.076>
VStem: 184 213<627.285 798.076>
LayerCount: 3
Fore
SplineSet
184 713 m 4
 184 772 232 819 291 819 c 4
 350 819 397 772 397 713 c 4
 397 654 350 606 291 606 c 4
 232 606 184 654 184 713 c 4
EndSplineSet
EndChar

StartChar: C
Encoding: 67 67 28
Width: 565
VWidth: 0
Flags: W
HStem: 606 213<205.285 376.076>
VStem: 184 213<627.285 798.076>
LayerCount: 3
Fore
SplineSet
184 713 m 4
 184 772 232 819 291 819 c 4
 350 819 397 772 397 713 c 4
 397 654 350 606 291 606 c 4
 232 606 184 654 184 713 c 4
EndSplineSet
EndChar

StartChar: D
Encoding: 68 68 29
Width: 565
VWidth: 0
Flags: W
HStem: 606 213<205.285 376.076>
VStem: 184 213<627.285 798.076>
LayerCount: 3
Fore
SplineSet
184 713 m 4
 184 772 232 819 291 819 c 4
 350 819 397 772 397 713 c 4
 397 654 350 606 291 606 c 4
 232 606 184 654 184 713 c 4
EndSplineSet
EndChar

StartChar: E
Encoding: 69 69 30
Width: 565
VWidth: 0
Flags: W
HStem: 606 213<205.285 376.076>
VStem: 184 213<627.285 798.076>
LayerCount: 3
Fore
SplineSet
184 713 m 4
 184 772 232 819 291 819 c 4
 350 819 397 772 397 713 c 4
 397 654 350 606 291 606 c 4
 232 606 184 654 184 713 c 4
EndSplineSet
EndChar

StartChar: F
Encoding: 70 70 31
Width: 565
VWidth: 0
Flags: W
HStem: 606 213<205.285 376.076>
VStem: 184 213<627.285 798.076>
LayerCount: 3
Fore
SplineSet
184 713 m 4
 184 772 232 819 291 819 c 4
 350 819 397 772 397 713 c 4
 397 654 350 606 291 606 c 4
 232 606 184 654 184 713 c 4
EndSplineSet
EndChar

StartChar: G
Encoding: 71 71 32
Width: 565
VWidth: 0
Flags: W
HStem: 606 213<205.285 376.076>
VStem: 184 213<627.285 798.076>
LayerCount: 3
Fore
SplineSet
184 713 m 4
 184 772 232 819 291 819 c 4
 350 819 397 772 397 713 c 4
 397 654 350 606 291 606 c 4
 232 606 184 654 184 713 c 4
EndSplineSet
EndChar

StartChar: H
Encoding: 72 72 33
Width: 565
VWidth: 0
Flags: W
HStem: 606 213<205.285 376.076>
VStem: 184 213<627.285 798.076>
LayerCount: 3
Fore
SplineSet
184 713 m 4
 184 772 232 819 291 819 c 4
 350 819 397 772 397 713 c 4
 397 654 350 606 291 606 c 4
 232 606 184 654 184 713 c 4
EndSplineSet
EndChar

StartChar: I
Encoding: 73 73 34
Width: 565
VWidth: 0
Flags: W
HStem: 606 213<205.285 376.076>
VStem: 184 213<627.285 798.076>
LayerCount: 3
Fore
SplineSet
184 713 m 4
 184 772 232 819 291 819 c 4
 350 819 397 772 397 713 c 4
 397 654 350 606 291 606 c 4
 232 606 184 654 184 713 c 4
EndSplineSet
EndChar

StartChar: J
Encoding: 74 74 35
Width: 565
VWidth: 0
Flags: W
HStem: 606 213<205.285 376.076>
VStem: 184 213<627.285 798.076>
LayerCount: 3
Fore
SplineSet
184 713 m 4
 184 772 232 819 291 819 c 4
 350 819 397 772 397 713 c 4
 397 654 350 606 291 606 c 4
 232 606 184 654 184 713 c 4
EndSplineSet
EndChar

StartChar: K
Encoding: 75 75 36
Width: 565
VWidth: 0
Flags: W
HStem: 606 213<205.285 376.076>
VStem: 184 213<627.285 798.076>
LayerCount: 3
Fore
SplineSet
184 713 m 4
 184 772 232 819 291 819 c 4
 350 819 397 772 397 713 c 4
 397 654 350 606 291 606 c 4
 232 606 184 654 184 713 c 4
EndSplineSet
EndChar

StartChar: L
Encoding: 76 76 37
Width: 565
VWidth: 0
Flags: W
HStem: 606 213<205.285 376.076>
VStem: 184 213<627.285 798.076>
LayerCount: 3
Fore
SplineSet
184 713 m 4
 184 772 232 819 291 819 c 4
 350 819 397 772 397 713 c 4
 397 654 350 606 291 606 c 4
 232 606 184 654 184 713 c 4
EndSplineSet
EndChar

StartChar: M
Encoding: 77 77 38
Width: 565
VWidth: 0
Flags: W
HStem: 606 213<205.285 376.076>
VStem: 184 213<627.285 798.076>
LayerCount: 3
Fore
SplineSet
184 713 m 4
 184 772 232 819 291 819 c 4
 350 819 397 772 397 713 c 4
 397 654 350 606 291 606 c 4
 232 606 184 654 184 713 c 4
EndSplineSet
EndChar

StartChar: N
Encoding: 78 78 39
Width: 565
VWidth: 0
Flags: W
HStem: 606 213<205.285 376.076>
VStem: 184 213<627.285 798.076>
LayerCount: 3
Fore
SplineSet
184 713 m 4
 184 772 232 819 291 819 c 4
 350 819 397 772 397 713 c 4
 397 654 350 606 291 606 c 4
 232 606 184 654 184 713 c 4
EndSplineSet
EndChar

StartChar: O
Encoding: 79 79 40
Width: 565
VWidth: 0
Flags: W
HStem: 606 213<205.285 376.076>
VStem: 184 213<627.285 798.076>
LayerCount: 3
Fore
SplineSet
184 713 m 4
 184 772 232 819 291 819 c 4
 350 819 397 772 397 713 c 4
 397 654 350 606 291 606 c 4
 232 606 184 654 184 713 c 4
EndSplineSet
EndChar

StartChar: P
Encoding: 80 80 41
Width: 565
VWidth: 0
Flags: W
HStem: 606 213<205.285 376.076>
VStem: 184 213<627.285 798.076>
LayerCount: 3
Fore
SplineSet
184 713 m 4
 184 772 232 819 291 819 c 4
 350 819 397 772 397 713 c 4
 397 654 350 606 291 606 c 4
 232 606 184 654 184 713 c 4
EndSplineSet
EndChar

StartChar: Q
Encoding: 81 81 42
Width: 565
VWidth: 0
Flags: W
HStem: 606 213<205.285 376.076>
VStem: 184 213<627.285 798.076>
LayerCount: 3
Fore
SplineSet
184 713 m 4
 184 772 232 819 291 819 c 4
 350 819 397 772 397 713 c 4
 397 654 350 606 291 606 c 4
 232 606 184 654 184 713 c 4
EndSplineSet
EndChar

StartChar: R
Encoding: 82 82 43
Width: 565
VWidth: 0
Flags: W
HStem: 606 213<205.285 376.076>
VStem: 184 213<627.285 798.076>
LayerCount: 3
Fore
SplineSet
184 713 m 4
 184 772 232 819 291 819 c 4
 350 819 397 772 397 713 c 4
 397 654 350 606 291 606 c 4
 232 606 184 654 184 713 c 4
EndSplineSet
EndChar

StartChar: S
Encoding: 83 83 44
Width: 1104
VWidth: 1000
Flags: HW
HStem: -20.4 67.2<268.2 351 268.2 376.2> 762 60<207.6 267.6>
VStem: 38.4 86.4<627 672.6> 57.6 60 477.6 87.6<166.8 240>
LayerCount: 3
Fore
SplineSet
252 1684.79980469 m 1
 252 1684.79980469 148.799804688 1626 148.799804688 1382.40039062 c 0
 148.799804688 877.200195312 727.200195312 986.400390625 1020 744 c 0
 1095.59960938 680.400390625 1137.59960938 598.799804688 1137.59960938 498 c 0
 1137.59960938 343.200195312 1062 200.400390625 1062 200.400390625 c 1
 1062 200.400390625 1188 296.400390625 1188 529.200195312 c 0
 1188 832.799804688 909.599609375 900 698.400390625 976.799804688 c 0
 450 1066.79980469 187.200195312 1075.20019531 187.200195312 1467.59960938 c 0
 187.200195312 1605.59960938 252 1684.79980469 252 1684.79980469 c 1
984 1639.20019531 m 1
 976.799804688 1632 968.400390625 1629.59960938 960 1629.59960938 c 0
 925.200195312 1629.59960938 910.799804688 1663.20019531 693.599609375 1752 c 1
 784.799804688 1696.79980469 914.400390625 1624.79980469 986.400390625 1468.79980469 c 1
 982.799804688 1500 981.599609375 1536 981.599609375 1567.20019531 c 0
 981.599609375 1591.20019531 982.799804688 1614 984 1639.20019531 c 1
196.799804688 453.599609375 m 1
 168 266.400390625 l 1
 169.200195312 265.200195312 194.400390625 218.400390625 357.599609375 81.599609375 c 1
 272.400390625 198 205.200195312 328.799804688 196.799804688 453.599609375 c 1
108 1365.59960938 m 0
 108 1686 342 1832.40039062 554.400390625 1832.40039062 c 0
 787.200195312 1832.40039062 931.200195312 1708.79980469 962.400390625 1708.79980469 c 0
 998.400390625 1708.79980469 997.200195312 1814.40039062 1044 1814.40039062 c 0
 1057.20019531 1814.40039062 1066.79980469 1808.40039062 1066.79980469 1779.59960938 c 0
 1066.79980469 1758 1048.79980469 1693.20019531 1048.79980469 1561.20019531 c 0
 1048.79980469 1431.59960938 1065.59960938 1368 1065.59960938 1346.40039062 c 0
 1065.59960938 1320 1063.20019531 1306.79980469 1039.20019531 1306.79980469 c 0
 1003.20019531 1306.79980469 981.599609375 1437.59960938 900 1542 c 0
 790.799804688 1681.20019531 639.599609375 1760.40039062 534 1760.40039062 c 0
 403.200195312 1760.40039062 288 1660.79980469 288 1459.20019531 c 0
 288 1066.79980469 796.799804688 1192.79980469 1099.20019531 940.799804688 c 0
 1202.40039062 854.400390625 1275.59960938 729.599609375 1275.59960938 542.400390625 c 0
 1275.59960938 405.599609375 1232.40039062 280.799804688 1161.59960938 184.799804688 c 0
 1078.79980469 72 966 -64.7998046875 672 -64.7998046875 c 0
 376.799804688 -64.7998046875 194.400390625 170.400390625 189.599609375 170.400390625 c 0
 174 170.400390625 150 127.200195312 121.200195312 127.200195312 c 0
 104.400390625 127.200195312 98.400390625 144 98.400390625 153.599609375 c 0
 98.400390625 190.799804688 112.799804688 159.599609375 175.200195312 580.799804688 c 0
 176.400390625 591.599609375 182.400390625 636 213.599609375 636 c 0
 244.799804688 636 246 607.200195312 246 571.200195312 c 2
 246 562.799804688 l 2
 246 499.200195312 250.799804688 428.400390625 312 288 c 0
 378 138 516 33.599609375 722.400390625 33.599609375 c 0
 988.799804688 33.599609375 1092 292.799804688 1092 446.400390625 c 0
 1092 562.799804688 1070.40039062 651.599609375 976.799804688 720 c 0
 681.599609375 934.799804688 108 870 108 1365.59960938 c 0
EndSplineSet
EndChar

StartChar: T
Encoding: 84 84 45
Width: 1577
VWidth: 1000
Flags: HWO
HStem: -7.2 63.6 746.4 79.2<143.4 159.6 159.6 338.4 496.2 508.8 508.8 685.2>
VStem: 370.8 111.6<100.8 709.2 709.2 714>
LayerCount: 3
Fore
SplineSet
804 1743.59960938 m 1
 867.599609375 1723.20019531 912 1701.59960938 912 1502.40039062 c 2
 914.400390625 280.799804688 l 2
 914.400390625 165.599609375 880.799804688 100.799804688 859.200195312 73.2001953125 c 1
 883.200195312 74.400390625 908.400390625 75.599609375 934.799804688 75.599609375 c 0
 970.799804688 75.599609375 1009.20019531 74.400390625 1041.59960938 72 c 1
 993.599609375 105.599609375 982.799804688 188.400390625 982.799804688 278.400390625 c 2
 988.799804688 1557.59960938 l 2
 988.799804688 1641.59960938 1002 1696.79980469 1066.79980469 1743.59960938 c 1
 804 1743.59960938 l 1
706.799804688 70.7998046875 m 2
 858 70.7998046875 864 147.599609375 864 392.400390625 c 0
 864 466.799804688 868.799804688 704.400390625 868.799804688 739.200195312 c 2
 868.799804688 1556.40039062 l 2
 868.799804688 1712.40039062 829.200195312 1730.40039062 710.400390625 1730.40039062 c 2
 316.799804688 1730.40039062 l 2
 290.400390625 1730.40039062 280.799804688 1722 271.200195312 1706.40039062 c 2
 79.2001953125 1381.20019531 l 2
 66 1358.40039062 50.400390625 1345.20019531 40.7998046875 1345.20019531 c 0
 32.400390625 1345.20019531 30 1352.40039062 30 1363.20019531 c 0
 30 1372.79980469 32.400390625 1386 34.7998046875 1398 c 2
 115.200195312 1794 l 2
 118.799804688 1813.20019531 123.599609375 1814.40039062 136.799804688 1814.40039062 c 2
 1742.40039062 1828.79980469 l 2
 1765.20019531 1828.79980469 1767.59960938 1814.40039062 1772.40039062 1779.59960938 c 1
 1840.79980469 1424.40039062 l 2
 1843.20019531 1412.40039062 1845.59960938 1400.40039062 1845.59960938 1390.79980469 c 0
 1845.59960938 1381.20019531 1843.20019531 1375.20019531 1836 1375.20019531 c 0
 1815.59960938 1375.20019531 1788 1428 1777.20019531 1446 c 2
 1606.79980469 1724.40039062 l 2
 1598.40039062 1738.79980469 1591.20019531 1738.79980469 1578 1738.79980469 c 2
 1316.40039062 1738.79980469 l 2
 1194 1738.79980469 1093.20019531 1737.59960938 1092 1560 c 2
 1083.59960938 421.200195312 l 1
 1083.59960938 156 1096.79980469 66 1320 66 c 0
 1362 66 1384.79980469 62.400390625 1384.79980469 30 c 0
 1384.79980469 3.599609375 1374 -18 1339.20019531 -18 c 0
 1326 -18 1153.20019531 0 960 0 c 0
 862.799804688 0 642 -20.400390625 631.200195312 -20.400390625 c 0
 598.799804688 -20.400390625 585.599609375 -4.7998046875 585.599609375 32.400390625 c 0
 585.599609375 70.7998046875 630 70.7998046875 676.799804688 70.7998046875 c 2
 706.799804688 70.7998046875 l 2
EndSplineSet
EndChar

StartChar: U
Encoding: 85 85 46
Width: 565
VWidth: 0
Flags: W
HStem: 606 213<205.285 376.076>
VStem: 184 213<627.285 798.076>
LayerCount: 3
Fore
SplineSet
184 713 m 4
 184 772 232 819 291 819 c 4
 350 819 397 772 397 713 c 4
 397 654 350 606 291 606 c 4
 232 606 184 654 184 713 c 4
EndSplineSet
EndChar

StartChar: V
Encoding: 86 86 47
Width: 565
VWidth: 0
Flags: W
HStem: 606 213<205.285 376.076>
VStem: 184 213<627.285 798.076>
LayerCount: 3
Fore
SplineSet
184 713 m 4
 184 772 232 819 291 819 c 4
 350 819 397 772 397 713 c 4
 397 654 350 606 291 606 c 4
 232 606 184 654 184 713 c 4
EndSplineSet
EndChar

StartChar: W
Encoding: 87 87 48
Width: 565
VWidth: 0
Flags: W
HStem: 606 213<205.285 376.076>
VStem: 184 213<627.285 798.076>
LayerCount: 3
Fore
SplineSet
184 713 m 4
 184 772 232 819 291 819 c 4
 350 819 397 772 397 713 c 4
 397 654 350 606 291 606 c 4
 232 606 184 654 184 713 c 4
EndSplineSet
EndChar

StartChar: X
Encoding: 88 88 49
Width: 565
VWidth: 0
Flags: W
HStem: 606 213<205.285 376.076>
VStem: 184 213<627.285 798.076>
LayerCount: 3
Fore
SplineSet
184 713 m 4
 184 772 232 819 291 819 c 4
 350 819 397 772 397 713 c 4
 397 654 350 606 291 606 c 4
 232 606 184 654 184 713 c 4
EndSplineSet
EndChar

StartChar: Y
Encoding: 89 89 50
Width: 565
VWidth: 0
Flags: W
HStem: 606 213<205.285 376.076>
VStem: 184 213<627.285 798.076>
LayerCount: 3
Fore
SplineSet
184 713 m 4
 184 772 232 819 291 819 c 4
 350 819 397 772 397 713 c 4
 397 654 350 606 291 606 c 4
 232 606 184 654 184 713 c 4
EndSplineSet
EndChar

StartChar: Z
Encoding: 90 90 51
Width: 565
VWidth: 0
Flags: W
HStem: 606 213<205.285 376.076>
VStem: 184 213<627.285 798.076>
LayerCount: 3
Fore
SplineSet
184 713 m 4
 184 772 232 819 291 819 c 4
 350 819 397 772 397 713 c 4
 397 654 350 606 291 606 c 4
 232 606 184 654 184 713 c 4
EndSplineSet
EndChar

